# xmcd CD database file
#
# Track frame offsets:
#	150
#	19429
#	38566
#	57966
#	68095
#	84670
#	100364
#	120579
#	134568
#	146076
#	162806
#	178660
#	190617
#	207679
#	217211
#	231618
#	242500
#	259273
#	276524
#	290396
#	307815
#
# Disc length: 4298 seconds
#
# Revision: 0
# Processed by: cddbd v1.5.1PL0 Copyright (c) Steve Scherf et al.
# Submitted via: CDex 1.51
#
DISCID=4910c815
DTITLE=Various Artist - 103 Deutsche Schlager
DYEAR=1900
DGENRE=Deutsche Schlager
TTITLE0=Peter Cornelius - Der Kaffee ist fertig
TTITLE1=Volker Lechtenbrink - Ich mag
TTITLE2=Vicky Leandros - Ich bin
TTITLE3=Gitte - Weiße Rosen
TTITLE4=Alexandra - Mein Freund der Baum
TTITLE5=Howard Carpendale - Da nahm er seine Gitarre
TTITLE6=Waterloo - Im Land das Ewigkeit heißt
TTITLE7=Milva - Du hast es gut
TTITLE8=Blue Diamonds - Ramona
TTITLE9=Elfi Graf - Meine kleine Stadt
TTITLE10=Lena Valaitis - Ein schöner Tag
TTITLE11=Ted Herold - Moonlight
TTITLE12=Teddy Parker - Kleine Fische werden groß
TTITLE13=Ralf Paulsen - Bonanza
TTITLE14=Nick Mc Kenzie - Juanita
TTITLE15=Jack Jersey - Ist die Liebe vorbei?
TTITLE16=Gitte - So schön kann doch kein Mann sein
TTITLE17=Michael Schanze - Du hast geweint
TTITLE18=Peter Orloff - Zünd' eine Kerze an und warte auf den Morgen
TTITLE19=Heino - Die schwarze Barbara
TTITLE20=Katja Ebstein - Es war einmal ein Jäger
EXTD=
EXTT0=
EXTT1=
EXTT2=
EXTT3=
EXTT4=
EXTT5=
EXTT6=
EXTT7=
EXTT8=
EXTT9=
EXTT10=
EXTT11=
EXTT12=
EXTT13=
EXTT14=
EXTT15=
EXTT16=
EXTT17=
EXTT18=
EXTT19=
EXTT20=
PLAYORDER=
